<svg width="105" height="65" viewBox="0 0 105 65" fill="none" xmlns="http://www.w3.org/2000/svg">
<path d="M104.623 8.88559L104.514 8.92762C103.237 9.41581 102.236 10.5603 101.81 12.0184C101.658 12.5405 100.927 12.5405 100.773 12.0184C100.346 10.5603 99.3439 9.41419 98.0685 8.92762L97.9597 8.88559C97.4572 8.69322 97.4572 7.97549 97.9597 7.78312L98.0685 7.74109C99.3455 7.2529 100.347 6.10841 100.773 4.6503C100.925 4.12817 101.658 4.12817 101.81 4.6503C102.237 6.10841 103.239 7.25452 104.514 7.74109L104.623 7.78312C105.126 7.97549 105.126 8.69322 104.623 8.88559ZM85.4489 18.2275C83.9799 18.4764 83.0741 20.0929 82.426 22.3577C82.6677 22.3108 82.7893 22.2866 83.0309 22.2413C85.5353 21.6319 86.7451 20.5892 86.7451 19.1942C86.7451 18.6268 86.3995 18.0674 85.4489 18.2275ZM100.326 19.9959C100.29 22.7553 99.3567 25.5455 97.526 27.6631C97.9741 28.6573 98.2125 29.7791 98.2109 30.9754C98.2045 33.793 96.7707 36.4036 94.7848 38.2756C92.3044 40.6131 88.5934 41.9629 85.3657 42.443C81.9364 42.9522 78.2798 43.0007 75.1897 41.0301C75.0969 40.9719 75.0025 40.904 74.908 40.8361C74.2743 41.6428 73.5958 42.4365 72.8837 43.0653C70.8642 44.8467 68.9551 46.0413 66.4427 46.8965C64.4184 47.5867 62.3044 47.5528 60.6338 47.0226C59.1808 48.3255 57.094 49.4183 55.2585 49.9695C53.3734 50.5369 51.5988 50.6387 50.2465 50.2087C50.0321 50.6646 49.9249 50.8925 49.7089 51.3484C48.355 54.0173 46.9356 56.6975 44.9017 58.7763C42.7878 60.936 40.3554 62.7206 37.3213 63.579C35.0185 64.2304 32.3845 64.3242 30.237 63.0956C30.205 63.0763 30.189 63.0666 30.157 63.0488C30.1266 63.0278 30.1106 63.0181 30.0801 62.997C28.2927 61.8897 27.1773 59.1724 27.2381 57.163C27.2477 56.8704 27.2541 56.5601 27.2861 56.2642C25.3802 57.8759 22.9862 58.82 20.5458 59.1788C18.7055 59.4504 17.0653 59.355 15.6955 58.9283C13.2215 58.1588 11.41 56.0153 11.1764 53.3884C10.7875 49.4845 10.4002 45.579 10.013 41.6751L10.0098 41.6444C10.0098 41.6315 10.0098 41.625 10.0066 41.6137C9.96496 41.132 9.91696 40.7763 9.87215 40.5177C8.3055 39.5704 7.44136 37.6823 7.75501 35.7344C7.95024 34.5204 8.73597 32.6452 10.3554 31.0271C12.3349 29.0485 15.2714 27.8377 17.9534 27.4772C19.7121 27.2412 22.2501 27.516 23.8136 28.5732C24.4681 27.5273 25.7115 26.2422 27.9726 25.7556C28.5247 25.6376 30.4914 25.2658 32.6614 25.5067C33.111 25.5568 33.5271 25.6279 33.9144 25.7201C35.3818 24.4559 37.4685 23.3955 39.3056 22.8992C40.9427 22.4563 42.4485 22.3189 43.7383 22.5743C44.3368 22.6923 44.8889 22.8863 45.3898 23.1562C45.8794 22.3011 46.9436 20.8624 48.8607 20.0849C49.0751 19.9976 49.304 19.9167 49.56 19.8375C50.0401 19.6872 51.3763 19.3138 52.9606 19.2249C53.031 18.8773 53.0662 18.7027 53.1366 18.3536C53.5639 16.0904 54.3624 13.8774 55.7002 11.999C57.1708 9.93471 59.2688 8.36669 61.6883 7.62309C62.2244 7.45982 62.4917 7.37738 63.0278 7.21572C65.2121 6.51415 67.8445 6.59983 69.568 8.2503C70.7714 9.40126 71.3283 11.2118 71.1923 13.3617C73.503 13.3165 75.793 13.3504 77.5949 15.1092C80.4593 12.4791 83.7222 10.2338 87.6509 9.71325C90.6801 9.31235 94.1895 9.68577 96.6283 11.763C98.9711 13.7578 100.365 16.9246 100.323 19.9959H100.326ZM52.3445 30.6504C53.199 28.8561 53.9959 26.9632 54.0711 24.9603C54.204 21.4654 49.7761 21.7515 47.5933 22.5775C45.7978 27.571 43.9991 32.5644 42.1957 37.5546C42.3509 35.2414 42.4293 34.0839 42.5845 31.7691C42.6709 29.2134 42.4437 27.3139 41.634 26.2454C40.8547 25.2173 39.5776 24.9668 37.7038 25.442C35.5146 25.9997 33.3431 27.7439 32.4453 29.8826C31.3171 27.6793 28.0206 27.7488 25.9819 28.3081C24.1944 33.1803 22.3957 38.0476 20.5842 42.9101L21.0163 36.8676C21.1811 34.8631 21.1443 32.3882 19.8065 30.8105C19.0224 29.8842 17.7662 29.6207 16.3516 29.7597C13.9592 29.9958 10.4306 33.405 10.7379 33.9271C10.9187 34.2343 12.7238 34.9569 13.0262 38.4712C13.4151 42.3686 13.804 46.2644 14.1928 50.1619C14.3657 52.1098 16.8797 52.3975 18.9424 52.1324C21.0195 51.8657 23.2167 51.0477 24.34 49.1289C26.5612 44.8629 28.7631 40.5856 30.9475 36.2986C32.2005 33.7768 32.6742 32.6953 32.6742 31.1257C32.6742 30.9689 32.6646 30.8218 32.6486 30.6795C33.6103 30.8816 34.2888 31.491 34.5945 34.6966C34.8537 37.8133 35.1129 40.9299 35.3722 44.0466C35.545 45.8765 36.582 46.2563 37.4877 46.2693C37.1421 46.8706 36.9692 47.1697 36.6236 47.7694C35.7594 49.3116 34.9401 50.0536 33.7735 50.3494C33.1686 50.5029 32.3909 50.4771 31.9172 50.2443C31.5716 50.5902 30.277 52.1179 30.277 53.9057C30.277 55.1278 30.7523 56.0218 31.5732 56.5665C32.5237 57.1226 33.9512 57.2083 35.7194 56.7379C39.7905 55.6532 42.3621 51.8592 44.0536 48.2172C46.8252 42.3654 49.5856 36.5103 52.3445 30.6521V30.6504ZM74.3416 22.23C74.4072 18.5524 72.2084 15.0656 68.2526 16.1971C66.1531 16.7985 64.484 18.381 63.4166 20.2788C63.8919 17.8977 64.3672 15.5166 64.8409 13.1338C65.6602 10.6476 63.7319 8.91954 61.4291 9.80216C60.893 9.96543 60.6258 10.0479 60.0897 10.2144C57.5773 11.0242 56.5451 13.3714 56.0731 15.8286C54.2456 24.8504 52.4181 33.8722 50.589 42.8956C50.5026 43.3595 51.7556 43.796 53.6551 43.1979C55.0793 42.7501 56.3323 42.0324 57.2829 41.056C57.9598 40.3593 58.6655 39.3603 59.2256 38.1818C60.2385 40.3641 62.7925 40.7101 64.8392 40.0925C71.5379 38.0719 74.2295 28.3323 74.34 22.23H74.3416ZM94.0855 17.6617C94.1543 13.1322 89.9344 11.3831 86.0538 12.0637C78.7855 13.3359 73.8983 21.1162 73.9623 28.2564C74.0151 34.0015 78.5454 36.4748 83.7654 35.4515C85.9882 35.0167 88.4574 34.231 90.1569 32.587C91.237 31.5428 91.9699 30.2447 91.9699 28.8044C91.9699 25.6635 88.6014 25.7217 87.9965 25.7653C87.1324 27.4174 85.8378 28.4875 84.1527 28.7931C83.0293 28.9967 82.1236 28.8739 81.8643 27.7908C81.7347 27.4675 81.6915 27.1717 81.6483 26.8306C82.4772 26.6625 82.8917 26.5817 83.7206 26.4281C88.4286 25.3612 93.9975 23.4133 94.0839 17.6601L94.0855 17.6617ZM64.1079 24.5642C63.3302 24.797 62.7685 25.3596 62.2516 26.26C61.906 27.9007 61.7332 28.7219 61.3875 30.3627C60.8258 33.0639 61.5891 34.1842 62.6837 33.675C64.7688 32.705 65.5882 28.7413 65.6202 26.2535C65.6394 24.7469 65.0585 24.2813 64.1095 24.5659L64.1079 24.5642ZM9.19844 20.1414C9.22725 20.1883 11.8149 18.6203 11.6884 15.5279C11.626 14.0229 10.7011 13.2486 9.36167 13.5816C7.86063 13.955 6.79006 15.5537 6.31639 17.1929C6.26998 16.7435 6.14676 16.3394 5.94353 16.0371C5.47785 15.2563 4.59771 14.933 3.57995 15.1868C2.66941 15.4147 1.87888 15.9369 1.85968 16.1325L0.0481938 27.3398C-0.254254 29.181 0.90593 29.7597 2.43257 29.3799L2.96866 29.2457C4.4953 28.8642 5.1594 27.8846 5.48745 25.9835L6.00754 22.8394C6.35479 20.7428 6.80766 19.9232 7.77262 19.684C8.49593 19.5029 8.9104 19.726 9.19844 20.143V20.1414ZM15.8491 11.3912C17.6254 10.9483 18.7648 9.39964 18.6927 7.63925C18.6271 6.03243 17.4029 5.5895 16.0331 5.9322C14.2568 6.37513 13.1671 7.91083 13.2407 9.69708C13.3031 11.2279 14.4777 11.7339 15.8475 11.3912H15.8491ZM14.2952 25.906C16.5276 25.3482 17.0029 23.8109 16.9501 23.7738C16.326 23.5685 16.0971 22.9817 16.3868 21.3102L17.6078 14.2767C17.9358 12.2868 16.6908 11.9279 15.4986 12.2253L14.6361 12.4403C13.3415 12.7636 12.7126 13.643 12.3829 15.5812L11.2516 22.3334C10.8627 24.7243 11.4788 26.6075 14.2952 25.9043V25.906ZM23.5431 9.03269C24.7593 8.74172 26.0795 8.95672 26.694 10.0754C26.9885 9.4934 27.3885 8.99875 27.747 8.66736C28.2991 8.2018 28.9856 7.88173 29.8289 7.67967C30.9699 7.40647 31.6884 7.65542 31.65 7.86395L29.8481 17.9559C29.2192 21.5494 26.9837 23.861 22.9382 24.8326C21.2019 25.2496 19.8417 25.2205 18.9904 24.8245C18.3439 24.5125 17.963 24.0049 17.923 23.2597C17.819 21.3975 20.133 20.4874 20.2146 20.6005C20.8323 21.3183 21.5524 21.5898 22.7686 21.2972C24.0584 20.9869 24.7721 20.2611 25.0041 19.0066L25.2282 17.5986C24.6153 18.79 23.6535 19.5756 22.3637 19.8844C19.8817 20.4793 18.6399 18.9355 18.5135 16.6788C18.3487 13.7206 20.1698 9.84257 23.5447 9.03269H23.5431ZM23.4071 15.1722C23.4471 15.8948 23.8136 16.1632 24.3848 16.0258C25.0554 15.8641 25.4762 15.2967 25.7051 13.9986L25.9547 12.6068C25.7595 12.2754 25.425 12.1122 24.9529 12.2253C23.8856 12.4807 23.3559 14.2524 23.4071 15.1722ZM33.0102 21.0257L33.5175 20.8996C35.0393 20.5197 35.6666 19.5886 35.9915 17.5227L37.0188 11.3621C37.2605 10.9919 37.4589 10.84 37.8142 10.7511C38.2958 10.6298 38.4879 10.9176 38.5103 11.4542C38.5311 11.9651 38.4063 12.6666 38.0654 14.3236C37.7246 15.9821 37.5709 16.6126 37.5997 17.3271C37.667 18.9598 38.6991 19.7583 40.6786 19.2637C43.2662 18.6171 43.7207 16.5705 43.6679 16.5576C43.151 16.4541 42.887 16.2634 42.8614 15.6249C42.8342 14.9863 43.047 13.9033 43.327 12.6214C43.6999 11.0841 43.9463 9.63081 43.9015 8.53319C43.8151 6.44141 42.6629 5.23387 40.7602 5.70913C39.264 6.08254 38.1806 7.17854 37.3981 8.68837L38.1774 3.95681C38.5071 1.99274 37.2605 1.60801 36.0427 1.91191L35.281 2.10266C33.9864 2.42597 33.3335 3.33769 33.0278 5.24357L30.8451 18.8062C30.4994 20.9804 31.7188 21.3457 33.0118 21.0224L33.0102 21.0257ZM45.8843 8.83709L45.9355 8.82416L45.1385 13.74C44.6889 16.5075 46.1819 17.9139 48.8959 17.2349C50.1137 16.931 51.0883 16.3264 51.7444 15.4664C52.3061 14.7843 52.6053 13.9873 52.5685 13.095C52.5285 12.1251 52.0596 11.9327 51.9316 11.9392C51.6372 12.2447 51.2643 12.5179 50.8834 12.6133C50.5026 12.7087 50.1121 12.5745 50.2353 11.8212L50.9314 7.57459L51.946 7.3208C52.8838 7.0864 53.5527 6.50769 53.7703 5.55071C53.9847 5.16274 54.0839 4.46764 54.0695 4.11038C54.0343 3.24231 53.3782 2.86566 52.3621 3.11946L51.7284 3.27788L52.1716 0.35682C52.2132 0.114342 51.4563 -0.186331 50.1121 0.149906C48.235 0.618697 47.0492 1.7147 46.6236 4.42399L46.6284 4.55169L46.4763 4.59049C45.361 4.87015 44.8233 5.51838 44.5992 6.29754C44.3832 6.63539 44.2648 7.51478 44.2776 7.82192C44.3128 8.68999 44.9945 9.06017 45.8826 8.83871L45.8843 8.83709Z" fill="#344054"/>
</svg>
