<svg width="24" height="24" viewBox="0 0 24 24" fill="none" xmlns="http://www.w3.org/2000/svg">
<path d="M1.40308 3.39062C1.40308 2.89707 1.80015 2.5 2.2937 2.5H3.98218C4.79858 2.5 5.52222 2.975 5.85991 3.6875H21.1119C22.0878 3.6875 22.8003 4.61523 22.5443 5.55781L21.0228 11.2096C20.7074 12.3748 19.6498 13.1875 18.4437 13.1875H7.73765L7.93804 14.2451C8.01968 14.6645 8.38706 14.9688 8.81382 14.9688H19.5125C20.006 14.9688 20.4031 15.3658 20.4031 15.8594C20.4031 16.3529 20.006 16.75 19.5125 16.75H8.81382C7.52983 16.75 6.42769 15.8371 6.19019 14.5791L4.27534 4.52246C4.24937 4.38145 4.1269 4.28125 3.98218 4.28125H2.2937C1.80015 4.28125 1.40308 3.88418 1.40308 3.39062ZM6.15308 19.7188C6.15308 19.4848 6.19915 19.2532 6.28867 19.0371C6.37818 18.821 6.50939 18.6246 6.67479 18.4592C6.8402 18.2938 7.03656 18.1626 7.25267 18.0731C7.46878 17.9836 7.70041 17.9375 7.93433 17.9375C8.16824 17.9375 8.39987 17.9836 8.61598 18.0731C8.83209 18.1626 9.02846 18.2938 9.19386 18.4592C9.35927 18.6246 9.49047 18.821 9.57999 19.0371C9.6695 19.2532 9.71558 19.4848 9.71558 19.7188C9.71558 19.9527 9.6695 20.1843 9.57999 20.4004C9.49047 20.6165 9.35927 20.8129 9.19386 20.9783C9.02846 21.1437 8.83209 21.2749 8.61598 21.3644C8.39987 21.4539 8.16824 21.5 7.93433 21.5C7.70041 21.5 7.46878 21.4539 7.25267 21.3644C7.03656 21.2749 6.8402 21.1437 6.67479 20.9783C6.50939 20.8129 6.37818 20.6165 6.28867 20.4004C6.19915 20.1843 6.15308 19.9527 6.15308 19.7188ZM18.6218 17.9375C19.0942 17.9375 19.5473 18.1252 19.8814 18.4592C20.2154 18.7933 20.4031 19.2463 20.4031 19.7188C20.4031 20.1912 20.2154 20.6442 19.8814 20.9783C19.5473 21.3123 19.0942 21.5 18.6218 21.5C18.1494 21.5 17.6963 21.3123 17.3623 20.9783C17.0282 20.6442 16.8406 20.1912 16.8406 19.7188C16.8406 19.2463 17.0282 18.7933 17.3623 18.4592C17.6963 18.1252 18.1494 17.9375 18.6218 17.9375Z" fill="#667085"/>
</svg>
