<svg width="21" height="21" viewBox="0 0 21 21" fill="none" xmlns="http://www.w3.org/2000/svg">
<g id="Profile Icons">
<path id="Primary" d="M0.5 3.36009C0.5 1.98113 1.62109 0.859985 3 0.859985H18C19.3789 0.859985 20.5 1.98113 20.5 3.36009V14.6106C20.5 15.9895 19.3789 17.1107 18 17.1107H12.582L7.75 20.7358C7.5625 20.8765 7.30859 20.8999 7.09375 20.7944C6.87891 20.689 6.75 20.4741 6.75 20.2358V17.1107H3C1.62109 17.1107 0.5 15.9895 0.5 14.6106L0.5 3.36009ZM8.3125 5.8602C7.79297 5.8602 7.375 6.27819 7.375 6.79774C7.375 7.3173 7.79297 7.73528 8.3125 7.73528H10.4258L7.02734 11.1339C6.66016 11.5011 6.66016 12.0948 7.02734 12.4581C7.39453 12.8214 7.98828 12.8253 8.35156 12.4581L11.75 9.05956V11.1729C11.75 11.6925 12.168 12.1105 12.6875 12.1105C13.207 12.1105 13.625 11.6925 13.625 11.1729V6.79774C13.625 6.27819 13.207 5.8602 12.6875 5.8602H8.3125Z" fill="#7F56D9"/>
</g>
</svg>
