<svg width="20" height="20" viewBox="0 0 20 20" fill="none" xmlns="http://www.w3.org/2000/svg">
<g id="help">
<path id="Rectangle 1 (Stroke)" fill-rule="evenodd" clip-rule="evenodd" d="M3 0H17C18.6569 0 20 1.34315 20 3V17C20 18.6569 18.6569 20 17 20H3C1.34315 20 0 18.6569 0 17V3C0 1.34315 1.34315 0 3 0ZM3 2C2.44772 2 2 2.44772 2 3V17C2 17.5523 2.44772 18 3 18H17C17.5523 18 18 17.5523 18 17V3C18 2.44772 17.5523 2 17 2H3Z" fill="#98A2B3"/>
<path id="?" d="M8.24 12.176L8.16 9.36L9.344 9.28C9.89867 9.248 10.352 9.088 10.704 8.8C11.0667 8.512 11.248 8.09067 11.248 7.536C11.248 7.06667 11.0827 6.67733 10.752 6.368C10.4213 6.05867 9.98933 5.904 9.456 5.904C9.08267 5.904 8.75733 6 8.48 6.192C8.21333 6.37333 8.02667 6.60267 7.92 6.88L6 6.336C6.21333 5.632 6.61867 5.06667 7.216 4.64C7.824 4.21333 8.57067 4 9.456 4C10.2027 4 10.864 4.15467 11.44 4.464C12.016 4.76267 12.464 5.17867 12.784 5.712C13.1147 6.23467 13.28 6.84267 13.28 7.536C13.28 8.10133 13.1573 8.608 12.912 9.056C12.6667 9.504 12.3147 9.86667 11.856 10.144C11.408 10.4213 10.8853 10.5973 10.288 10.672L10.256 12.176H8.24ZM9.248 15.632C8.896 15.632 8.592 15.5093 8.336 15.264C8.09067 15.008 7.968 14.6987 7.968 14.336C7.968 13.984 8.09067 13.6853 8.336 13.44C8.592 13.184 8.896 13.056 9.248 13.056C9.6 13.056 9.89867 13.184 10.144 13.44C10.4 13.6853 10.528 13.984 10.528 14.336C10.528 14.6987 10.4 15.008 10.144 15.264C9.89867 15.5093 9.6 15.632 9.248 15.632Z" fill="#98A2B3"/>
</g>
</svg>
