<svg width="21" height="21" viewBox="0 0 21 21" fill="none" xmlns="http://www.w3.org/2000/svg">
<g id="Profile Icons">
<path id="Primary" d="M10.5 20.86C13.1522 20.86 15.6957 19.8064 17.5711 17.9311C19.4464 16.0557 20.5 13.5122 20.5 10.86C20.5 8.20782 19.4464 5.66428 17.5711 3.78892C15.6957 1.91355 13.1522 0.859985 10.5 0.859985C7.84784 0.859985 5.3043 1.91355 3.42893 3.78892C1.55357 5.66428 0.5 8.20782 0.5 10.86C0.5 13.5122 1.55357 16.0557 3.42893 17.9311C5.3043 19.8064 7.84784 20.86 10.5 20.86ZM7.13281 7.31702C7.44141 6.44592 8.26953 5.85999 9.19531 5.85999H11.4727C12.8359 5.85999 13.9375 6.96545 13.9375 8.32483C13.9375 9.20764 13.4648 10.024 12.6992 10.4655L11.4375 11.1881C11.4297 11.6959 11.0117 12.11 10.5 12.11C9.98047 12.11 9.5625 11.692 9.5625 11.1725V10.6451C9.5625 10.3092 9.74219 10.0006 10.0352 9.83264L11.7656 8.84045C11.9492 8.73499 12.0625 8.53967 12.0625 8.32874C12.0625 8.00061 11.7969 7.73889 11.4727 7.73889H9.19531C9.0625 7.73889 8.94531 7.82092 8.90234 7.94592L8.88672 7.9928C8.71484 8.48108 8.17578 8.73499 7.69141 8.56311C7.20703 8.39124 6.94922 7.85217 7.12109 7.3678L7.13672 7.32092L7.13281 7.31702ZM9.25 14.61C9.25 14.2785 9.3817 13.9605 9.61612 13.7261C9.85054 13.4917 10.1685 13.36 10.5 13.36C10.8315 13.36 11.1495 13.4917 11.3839 13.7261C11.6183 13.9605 11.75 14.2785 11.75 14.61C11.75 14.9415 11.6183 15.2594 11.3839 15.4939C11.1495 15.7283 10.8315 15.86 10.5 15.86C10.1685 15.86 9.85054 15.7283 9.61612 15.4939C9.3817 15.2594 9.25 14.9415 9.25 14.61Z" fill="#7F56D9"/>
</g>
</svg>
