<svg width="24" height="24" viewBox="0 0 24 24" fill="none" xmlns="http://www.w3.org/2000/svg">
<g id="Home">
<path id="Icon" d="M3 11.2982C3 10.7239 3 10.4367 3.07403 10.1722C3.1396 9.93794 3.24737 9.7176 3.39203 9.52201C3.55534 9.30121 3.78202 9.1249 4.23539 8.77228L11.0177 3.49715C11.369 3.2239 11.5447 3.08727 11.7387 3.03476C11.9098 2.98841 12.0902 2.98841 12.2613 3.03476C12.4553 3.08727 12.631 3.2239 12.9823 3.49715L19.7646 8.77228C20.218 9.1249 20.4447 9.30121 20.608 9.52201C20.7526 9.7176 20.8604 9.93794 20.926 10.1722C21 10.4367 21 10.7239 21 11.2982V18.5331C21 19.6532 21 20.2133 20.782 20.6411C20.5903 21.0174 20.2843 21.3234 19.908 21.5152C19.4802 21.7331 18.9201 21.7331 17.8 21.7331H6.2C5.0799 21.7331 4.51984 21.7331 4.09202 21.5152C3.71569 21.3234 3.40973 21.0174 3.21799 20.6411C3 20.2133 3 19.6532 3 18.5331V11.2982Z" fill="#7F56D9"/>
</g>
</svg>
