<svg width="22" height="23" viewBox="0 0 22 23" fill="none" xmlns="http://www.w3.org/2000/svg">
<path d="M11.2495 0.493347C10.533 0.493347 9.95408 1.10272 9.95408 1.85698V2.67517C6.99883 3.30585 4.77226 6.05869 4.77226 9.35698V10.1581C4.77226 12.161 4.07191 14.0956 2.80884 15.5956L2.50927 15.9493C2.16921 16.3499 2.08824 16.9252 2.29471 17.4152C2.50117 17.9053 2.96672 18.2206 3.47681 18.2206H19.0223C19.5323 18.2206 19.9939 17.9053 20.2044 17.4152C20.4149 16.9252 20.3299 16.3499 19.9898 15.9493L19.6902 15.5956C18.4272 14.0956 17.7268 12.1652 17.7268 10.1581V9.35698C17.7268 6.05869 15.5002 3.30585 12.545 2.67517V1.85698C12.545 1.10272 11.9661 0.493347 11.2495 0.493347ZM13.0834 21.5147C13.5692 21.0033 13.8404 20.3087 13.8404 19.5843H11.2495H8.65863C8.65863 20.3087 8.92986 21.0033 9.41566 21.5147C9.90145 22.026 10.5613 22.3115 11.2495 22.3115C11.9377 22.3115 12.5976 22.026 13.0834 21.5147Z" fill="#667085"/>
</svg>
