<svg width="21" height="21" viewBox="0 0 21 21" fill="none" xmlns="http://www.w3.org/2000/svg">
<g id="link-external-02">
<path id="Icon" d="M17 8.35999L17 9.35999L19 9.35999L19 8.35999L17 8.35999ZM18 3.35999L19 3.35999C19 2.80771 18.5523 2.35999 18 2.35999V3.35999ZM13 2.35999H12V4.35999H13V2.35999ZM9.79289 10.1529L9.08579 10.86L10.5 12.2742L11.2071 11.5671L9.79289 10.1529ZM8.83333 4.35999C9.38562 4.35999 9.83333 3.91227 9.83333 3.35999C9.83333 2.8077 9.38562 2.35999 8.83333 2.35999V4.35999ZM19 12.5267C19 11.9744 18.5523 11.5267 18 11.5267C17.4477 11.5267 17 11.9744 17 12.5267H19ZM4.36502 18.0875L3.91103 18.9785L3.91103 18.9785L4.36502 18.0875ZM3.27248 16.995L4.16349 16.541L4.16349 16.541L3.27248 16.995ZM16.635 18.0875L16.181 17.1965L16.181 17.1965L16.635 18.0875ZM17.7275 16.995L16.8365 16.541L16.8365 16.541L17.7275 16.995ZM3.27248 4.72501L4.16349 5.179L3.27248 4.72501ZM4.36502 3.63247L4.81901 4.52348L4.36502 3.63247ZM19 8.35999L19 3.35999L17 3.35999L17 8.35999L19 8.35999ZM18 2.35999H13V4.35999H18V2.35999ZM17.2929 2.65289L9.79289 10.1529L11.2071 11.5671L18.7071 4.0671L17.2929 2.65289ZM14 17.36H7V19.36H14V17.36ZM4 14.36V7.35999H2V14.36H4ZM8.83333 2.35999H7V4.35999H8.83333V2.35999ZM19 14.36V12.5267H17V14.36H19ZM7 17.36C6.28343 17.36 5.80615 17.3592 5.43944 17.3292C5.0844 17.3002 4.92194 17.2489 4.81901 17.1965L3.91103 18.9785C4.34289 19.1986 4.79785 19.2835 5.27657 19.3226C5.74362 19.3608 6.31643 19.36 7 19.36V17.36ZM2 14.36C2 15.0435 1.99922 15.6164 2.03738 16.0834C2.07649 16.5621 2.16143 17.0171 2.38148 17.449L4.16349 16.541C4.11105 16.438 4.05975 16.2756 4.03074 15.9205C4.00078 15.5538 4 15.0766 4 14.36H2ZM4.81901 17.1965C4.53677 17.0527 4.3073 16.8232 4.16349 16.541L2.38148 17.449C2.71703 18.1075 3.25247 18.643 3.91103 18.9785L4.81901 17.1965ZM14 19.36C14.6836 19.36 15.2564 19.3608 15.7234 19.3226C16.2021 19.2835 16.6571 19.1986 17.089 18.9785L16.181 17.1965C16.0781 17.2489 15.9156 17.3002 15.5606 17.3292C15.1938 17.3592 14.7166 17.36 14 17.36V19.36ZM17 14.36C17 15.0766 16.9992 15.5538 16.9693 15.9205C16.9403 16.2756 16.889 16.438 16.8365 16.541L18.6185 17.449C18.8386 17.0171 18.9235 16.5621 18.9626 16.0834C19.0008 15.6164 19 15.0435 19 14.36H17ZM17.089 18.9785C17.7475 18.643 18.283 18.1075 18.6185 17.449L16.8365 16.541C16.6927 16.8232 16.4632 17.0527 16.181 17.1965L17.089 18.9785ZM4 7.35999C4 6.64342 4.00078 6.16614 4.03074 5.79942C4.05975 5.44438 4.11105 5.28192 4.16349 5.179L2.38148 4.27102C2.16143 4.70288 2.07649 5.15784 2.03738 5.63656C1.99922 6.10361 2 6.67642 2 7.35999H4ZM7 2.35999C6.31644 2.35999 5.74362 2.35921 5.27657 2.39737C4.79785 2.43648 4.34289 2.52142 3.91103 2.74146L4.81901 4.52348C4.92194 4.47103 5.0844 4.41973 5.43944 4.39072C5.80615 4.36076 6.28343 4.35999 7 4.35999V2.35999ZM4.16349 5.179C4.3073 4.89676 4.53677 4.66729 4.81901 4.52348L3.91103 2.74146C3.25247 3.07702 2.71703 3.61245 2.38148 4.27102L4.16349 5.179Z" fill="#98A2B3"/>
</g>
</svg>
