<svg width="21" height="21" viewBox="0 0 21 21" fill="none" xmlns="http://www.w3.org/2000/svg">
<g id="Profile Icons">
<path id="Primary" d="M0.5 4.13238C0.5 2.87901 1.49653 1.85999 2.72222 1.85999H8.27778V6.40477C8.27778 7.03323 8.77431 7.54097 9.38889 7.54097H13.8333V9.20976L10.6111 10.527C9.87153 10.8288 9.38889 11.5603 9.38889 12.3734C9.38889 14.383 10.0451 17.6283 12.6597 19.7693C12.3472 19.9397 11.9896 20.0391 11.6111 20.0391H2.72222C1.49653 20.0391 0.5 19.0201 0.5 17.7667V4.13238ZM13.8333 6.40477H9.38889V1.85999L13.8333 6.40477ZM15.191 9.87373C15.3889 9.79206 15.6111 9.79206 15.809 9.87373L19.9757 11.578C20.2917 11.7094 20.5 12.0218 20.5 12.3698C20.5 14.6174 19.6007 18.3633 15.8194 19.9752C15.6146 20.064 15.3819 20.064 15.1771 19.9752C11.3993 18.3633 10.5 14.6174 10.5 12.3698C10.5 12.0218 10.7083 11.7094 11.0243 11.578L15.191 9.87373ZM18.8125 12.9379L15.5 11.5816V18.2496C17.8681 17.0779 18.6771 14.7345 18.8125 12.9344V12.9379Z" fill="#7F56D9"/>
</g>
</svg>
