<svg width="21" height="21" viewBox="0 0 21 21" fill="none" xmlns="http://www.w3.org/2000/svg">
<g id="Profile Icons" clip-path="url(#clip0_19721_4293)">
<path id="Vector" d="M3.5 6.85999C3.5 5.79912 3.92143 4.7817 4.67157 4.03156C5.42172 3.28141 6.43913 2.85999 7.5 2.85999C8.56087 2.85999 9.57828 3.28141 10.3284 4.03156C11.0786 4.7817 11.5 5.79912 11.5 6.85999C11.5 7.92085 11.0786 8.93827 10.3284 9.68841C9.57828 10.4386 8.56087 10.86 7.5 10.86C6.43913 10.86 5.42172 10.4386 4.67157 9.68841C3.92143 8.93827 3.5 7.92085 3.5 6.85999ZM0.5 17.9319C0.5 14.8537 2.99375 12.36 6.07188 12.36H8.92813C12.0063 12.36 14.5 14.8537 14.5 17.9319C14.5 18.4444 14.0844 18.86 13.5719 18.86H1.42813C0.915625 18.86 0.5 18.4444 0.5 17.9319ZM19.5406 18.86H15.2344C15.4031 18.5662 15.5031 18.2256 15.5031 17.86V17.61C15.5031 15.7131 14.6562 14.01 13.3219 12.8662C13.3969 12.8631 13.4688 12.86 13.5437 12.86H15.4625C18.2437 12.86 20.5 15.1162 20.5 17.9006C20.5 18.4319 20.0688 18.86 19.5406 18.86ZM14 10.86C13.0312 10.86 12.1562 10.4662 11.5219 9.83186C12.1375 9.00061 12.5 7.97249 12.5 6.85999C12.5 6.02249 12.2938 5.23186 11.9281 4.53811C12.5094 4.11311 13.225 3.85999 14 3.85999C15.9344 3.85999 17.5 5.42561 17.5 7.35999C17.5 9.29436 15.9344 10.86 14 10.86Z" fill="#7F56D9"/>
</g>
<defs>
<clipPath id="clip0_19721_4293">
<rect width="20" height="20" fill="white" transform="translate(0.5 0.859985)"/>
</clipPath>
</defs>
</svg>
