<svg width="21" height="21" viewBox="0 0 21 21" fill="none" xmlns="http://www.w3.org/2000/svg">
<g id="Profile Icons" clip-path="url(#clip0_19721_4242)">
<path id="Primary" d="M11.8332 1.66897C11.785 1.28303 11.4955 0.971313 11.1096 0.926782C10.7459 0.882251 10.3748 0.859985 10 0.859985C9.58809 0.859985 9.17988 0.885962 8.78281 0.937915C8.40059 0.986157 8.11484 1.29788 8.0666 1.6801L7.95898 2.53733C7.9293 2.77483 7.75859 2.9678 7.53223 3.04573C7.17598 3.16448 6.82715 3.31292 6.49687 3.47991C6.28164 3.59124 6.02187 3.57268 5.82891 3.42424L5.16094 2.90471C4.85664 2.66721 4.42988 2.65237 4.12559 2.88987C3.50957 3.37229 2.95664 3.92893 2.47793 4.54866C2.24414 4.85295 2.25898 5.276 2.49648 5.5803L3.02344 6.2594C3.17187 6.44866 3.18672 6.70471 3.0791 6.91995C2.91582 7.24651 2.7748 7.5842 2.65977 7.93674C2.58555 8.16682 2.38887 8.33752 2.15137 8.36721L1.30527 8.47483C0.923047 8.52307 0.611328 8.81252 0.563086 9.19475C0.525977 9.57327 0.5 9.96292 0.5 10.36C0.5 10.7533 0.522266 11.143 0.570508 11.5252C0.61875 11.9074 0.930469 12.1969 1.3127 12.2451L2.15879 12.3528C2.39629 12.3824 2.59297 12.5531 2.66719 12.7832C2.78223 13.1358 2.92324 13.4772 3.08652 13.8037C3.19414 14.019 3.17559 14.275 3.03086 14.4643L2.50391 15.1397C2.26641 15.444 2.25156 15.867 2.48535 16.1713C2.96406 16.791 3.51699 17.3477 4.13301 17.8301C4.4373 18.0676 4.86406 18.0528 5.16836 17.8153L5.83633 17.2957C6.02559 17.1473 6.28906 17.1324 6.5043 17.2401C6.83828 17.4108 7.1834 17.5555 7.53965 17.6742C7.76601 17.7522 7.93672 17.9451 7.96641 18.1826L8.07402 19.0399C8.12226 19.4221 8.40801 19.7338 8.79023 19.7821C9.1873 19.834 9.59551 19.86 10.0074 19.86C10.3822 19.86 10.7533 19.8377 11.117 19.7969C11.5029 19.7524 11.7924 19.4369 11.8406 19.0547L11.9445 18.2198C11.9742 17.9785 12.1486 17.7819 12.3787 17.7076C12.7498 17.5889 13.1098 17.4405 13.4549 17.2698C13.6701 17.1621 13.9262 17.1807 14.1154 17.3254L14.7871 17.8524C15.0914 18.0899 15.5145 18.1047 15.8187 17.8709C15.9227 17.7893 16.0229 17.7076 16.123 17.6223L17.2623 16.483C17.3291 16.4014 17.3959 16.3198 17.4627 16.2381C17.7039 15.9338 17.6854 15.5071 17.4479 15.2028L16.9283 14.5385C16.7799 14.3492 16.765 14.0858 16.8727 13.8705C17.0508 13.5217 17.2066 13.1543 17.3291 12.7758C17.4033 12.5457 17.6 12.375 17.8375 12.3453L18.6836 12.2414C19.0658 12.1932 19.3812 11.9037 19.4258 11.5215C19.4332 11.4584 19.4406 11.3916 19.448 11.3285V9.40256C19.4406 9.33948 19.4332 9.27268 19.4258 9.20959C19.3775 8.82737 19.0658 8.53792 18.6836 8.48967L17.8375 8.38577C17.6 8.35608 17.4033 8.18538 17.3291 7.9553C17.2029 7.57678 17.0508 7.2094 16.8727 6.86057C16.7613 6.64534 16.7799 6.38557 16.9283 6.1926L17.4479 5.52834C17.6854 5.22405 17.7002 4.79729 17.4627 4.49299C17.3959 4.41135 17.3291 4.32971 17.2623 4.24807L16.123 3.09768C16.0229 3.01233 15.9227 2.93069 15.8187 2.84905C15.5145 2.61155 15.0914 2.6301 14.7871 2.8676L14.108 3.39456C13.9187 3.54299 13.659 3.55784 13.4475 3.45022C13.1023 3.27952 12.7424 3.13108 12.3713 3.01233C12.1412 2.93811 11.9668 2.74143 11.9371 2.50393L11.8332 1.66897ZM10 7.39124C10.7874 7.39124 11.5425 7.70401 12.0992 8.26076C12.656 8.81751 12.9687 9.57262 12.9687 10.36C12.9687 11.1473 12.656 11.9025 12.0992 12.4592C11.5425 13.016 10.7874 13.3287 10 13.3287C9.21264 13.3287 8.45752 13.016 7.90078 12.4592C7.34403 11.9025 7.03125 11.1473 7.03125 10.36C7.03125 9.57262 7.34403 8.81751 7.90078 8.26076C8.45752 7.70401 9.21264 7.39124 10 7.39124Z" fill="#7F56D9"/>
</g>
<defs>
<clipPath id="clip0_19721_4242">
<rect width="20" height="20" fill="white" transform="translate(0.5 0.859985)"/>
</clipPath>
</defs>
</svg>
