<svg width="25" height="24" viewBox="0 0 25 24" fill="none" xmlns="http://www.w3.org/2000/svg">
<g id="Shop">
<path id="Primary" d="M21.5833 10.9844C21.5833 9.72612 20.5603 8.70312 19.302 8.70312H5.6145C4.35625 8.70312 3.33325 9.72612 3.33325 10.9844V18.9688C3.33325 20.227 4.35625 21.25 5.6145 21.25H19.302C20.5603 21.25 21.5833 20.227 21.5833 18.9688V10.9844ZM19.0168 5.85156H5.89966C5.42559 5.85156 5.04419 6.23296 5.04419 6.70703C5.04419 7.1811 5.42559 7.5625 5.89966 7.5625H19.0168C19.4909 7.5625 19.8723 7.1811 19.8723 6.70703C19.8723 6.23296 19.4909 5.85156 19.0168 5.85156ZM17.3059 3H7.6106C7.13652 3 6.75513 3.3814 6.75513 3.85547C6.75513 4.32954 7.13652 4.71094 7.6106 4.71094H17.3059C17.78 4.71094 18.1614 4.32954 18.1614 3.85547C18.1614 3.3814 17.78 3 17.3059 3Z" fill="#667085"/>
</g>
</svg>
