<svg width="21" height="21" viewBox="0 0 21 21" fill="none" xmlns="http://www.w3.org/2000/svg">
<g id="Profile Icons">
<path id="Primary" d="M6 0.859985C4.62109 0.859985 3.5 1.98108 3.5 3.35999V18.36C3.5 19.7389 4.62109 20.86 6 20.86H16C17.3789 20.86 18.5 19.7389 18.5 18.36V7.10999H13.5C12.8086 7.10999 12.25 6.55139 12.25 5.85999V0.859985H6ZM13.5 0.859985V5.85999H18.5L13.5 0.859985ZM7.875 10.86H14.125C14.4687 10.86 14.75 11.1412 14.75 11.485C14.75 11.8287 14.4687 12.11 14.125 12.11H7.875C7.53125 12.11 7.25 11.8287 7.25 11.485C7.25 11.1412 7.53125 10.86 7.875 10.86ZM7.875 13.36H14.125C14.4687 13.36 14.75 13.6412 14.75 13.985C14.75 14.3287 14.4687 14.61 14.125 14.61H7.875C7.53125 14.61 7.25 14.3287 7.25 13.985C7.25 13.6412 7.53125 13.36 7.875 13.36ZM7.875 15.86H14.125C14.4687 15.86 14.75 16.1412 14.75 16.485C14.75 16.8287 14.4687 17.11 14.125 17.11H7.875C7.53125 17.11 7.25 16.8287 7.25 16.485C7.25 16.1412 7.53125 15.86 7.875 15.86Z" fill="#7F56D9"/>
</g>
</svg>
