<svg width="28" height="28" viewBox="0 0 28 28" fill="none" xmlns="http://www.w3.org/2000/svg">
<path d="M14.0701 0.0950012C6.37014 0.0950012 0.140137 6.325 0.140137 14.025C0.140137 21.725 6.37014 27.955 14.0701 27.955C21.7701 27.955 28.0001 21.725 28.0001 14.025C28.0001 6.325 21.7601 0.0950012 14.0701 0.0950012ZM10.9601 7.465C11.7901 6.635 12.9101 6.175 14.0701 6.175C15.2301 6.175 16.3601 6.635 17.1801 7.465C18.0101 8.295 18.4701 9.415 18.4701 10.575C18.4701 11.735 18.0101 12.865 17.1801 13.685C16.3501 14.515 15.2301 14.975 14.0701 14.975C12.9101 14.975 11.7801 14.515 10.9601 13.685C10.1301 12.855 9.67014 11.735 9.67014 10.575C9.67014 9.415 10.1301 8.285 10.9601 7.465ZM15.0601 23.785H13.0501C10.5701 23.535 8.36014 22.335 6.77014 20.585C7.65014 18.275 9.88014 16.635 12.5001 16.635H15.6401C18.2501 16.635 20.4701 18.265 21.3601 20.555C19.7701 22.335 17.5601 23.535 15.0601 23.785Z" fill="#667085"/>
</svg>
