<svg width="16" height="17" viewBox="0 0 16 17" fill="none" xmlns="http://www.w3.org/2000/svg">
<path id="Star 2" d="M7.05173 0.832408C7.35641 -0.0776291 8.64359 -0.0776297 8.94827 0.832407L10.4204 5.22943C10.5127 5.50537 10.7207 5.72739 10.9901 5.83754L15.2369 7.57442C16.0655 7.9133 16.0655 9.0867 15.2369 9.42558L10.9901 11.1625C10.7207 11.2726 10.5127 11.4946 10.4204 11.7706L8.94827 16.1676C8.64359 17.0776 7.35641 17.0776 7.05173 16.1676L5.57964 11.7706C5.48726 11.4946 5.27926 11.2726 5.00992 11.1625L0.763124 9.42558C-0.0654789 9.0867 -0.065479 7.9133 0.763123 7.57442L5.00992 5.83754C5.27926 5.72739 5.48726 5.50537 5.57964 5.22943L7.05173 0.832408Z" fill="#B692F6"/>
</svg>
