<svg width="27" height="24" viewBox="0 0 27 24" fill="none" xmlns="http://www.w3.org/2000/svg">
<path d="M23.5074 1.34219C23.4464 1.20938 23.3136 1.125 23.1667 1.125C23.0199 1.125 22.8871 1.20938 22.8261 1.34219L21.8964 3.35469L19.8839 4.28437C19.7511 4.34531 19.6667 4.47813 19.6667 4.625C19.6667 4.77187 19.7511 4.90469 19.8839 4.96562L21.8964 5.89531L22.8261 7.90781C22.8871 8.04063 23.0199 8.125 23.1667 8.125C23.3136 8.125 23.4464 8.04063 23.5074 7.90781L24.4371 5.89531L26.4496 4.96562C26.5824 4.90469 26.6667 4.77187 26.6667 4.625C26.6667 4.47813 26.5824 4.34531 26.4496 4.28437L24.4371 3.35469L23.5074 1.34219Z" fill="#667085"/>
<path d="M5.91675 7.125C4.67573 7.125 3.66675 8.13398 3.66675 9.375V20.625C3.66675 21.866 4.67573 22.875 5.91675 22.875H19.4167C20.6578 22.875 21.6667 21.866 21.6667 20.625V12.75C21.6667 11.509 20.6578 10.5 19.4167 10.5H6.47925C6.16987 10.5 5.91675 10.2469 5.91675 9.9375C5.91675 9.62812 6.16987 9.375 6.47925 9.375H19.4167C20.039 9.375 20.5417 8.87227 20.5417 8.25C20.5417 7.62773 20.039 7.125 19.4167 7.125H5.91675ZM18.2917 15.5625C18.5901 15.5625 18.8763 15.681 19.0872 15.892C19.2982 16.103 19.4167 16.3891 19.4167 16.6875C19.4167 16.9859 19.2982 17.272 19.0872 17.483C18.8763 17.694 18.5901 17.8125 18.2917 17.8125C17.9934 17.8125 17.7072 17.694 17.4963 17.483C17.2853 17.272 17.1667 16.9859 17.1667 16.6875C17.1667 16.3891 17.2853 16.103 17.4963 15.892C17.7072 15.681 17.9934 15.5625 18.2917 15.5625Z" fill="#667085"/>
</svg>
